<svg width="57" height="62" fill="none" xmlns="http://www.w3.org/2000/svg"><path id="NA MU" d="M23.01 25V-.2h-5.76v15.3L4.72-.2H-.1V25h5.75V9.69L18.22 25h4.79Zm10.87-5.4h11.7l2.23 5.4h6.12L42.66-.2H36.9L25.67 25h5.98l2.23-5.4Zm5.87-14.08 3.99 9.65h-7.99l4-9.65ZM22.79 45.88 22.83 61h5.47l-.07-25.2h-4.79l-9.29 15.66L4.72 35.8H-.1V61h5.47V46.2l7.38 12.13h2.62l7.42-12.45ZM37.8 59.1q2.9 2.33 7.67 2.33 4.76 0 7.66-2.32.39-.32.75-.67.26-.27.51-.56 2.49-2.93 2.49-7.98V35.8h-5.76v13.89q0 3.49-1.44 5.14-.27.3-.58.55-1.37 1.08-3.59 1.08-2.29 0-3.65-1.13-1.97-1.63-1.97-5.64V35.8h-5.83v14.1q0 5.05 2.49 7.98.24.29.51.56.35.35.74.66Z" fill="#0F0E08" fill-opacity="1" fill-rule="evenodd"/></svg>